<svg width="24" height="24" viewBox="0 0 24 24" fill="none" xmlns="http://www.w3.org/2000/svg">
<path opacity="0.4" d="M9.09645 3.31476C10.3496 2.34403 12.3345 2.23587 13.7234 3.02863L13.9929 3.19952L19.7537 7.2298C20.2227 7.55826 20.6665 8.09692 20.9939 8.72394C21.3213 9.35112 21.5095 10.0242 21.5095 10.5999V17.3802C21.5094 19.6538 19.664 21.5001 17.3904 21.5003H6.61012C4.33781 21.5003 2.49023 19.6455 2.49 17.3704V10.47L2.49781 10.265C2.5345 9.77632 2.69783 9.22066 2.95875 8.69073C3.25679 8.08546 3.66125 7.55653 4.08766 7.22394L9.09645 3.31476Z" fill="currentColor" stroke="currentColor"/>
<path d="M12 14.75C12.1339 14.75 12.25 14.8661 12.25 15V18C12.25 18.1339 12.1339 18.25 12 18.25C11.8661 18.25 11.75 18.1339 11.75 18V15C11.75 14.8661 11.8661 14.75 12 14.75Z" fill="currentColor" stroke="currentColor"/>
</svg>
