<svg width="24" height="24" viewBox="0 0 24 24" fill="none" xmlns="http://www.w3.org/2000/svg">
<path opacity="0.4" d="M16.19 2H7.81C4.17 2 2 4.17 2 7.81V16.18C2 19.83 4.17 22 7.81 22H16.18C19.82 22 21.99 19.83 21.99 16.19V7.81C22 4.17 19.83 2 16.19 2Z" fill="currentColor"/>
<path d="M11.712 4.748C11.68 4.86533 11.6427 4.99333 11.6 5.132C11.568 5.27067 11.5413 5.39867 11.52 5.516C11.424 5.98533 11.3333 6.55067 11.248 7.212C11.1627 7.86267 11.0933 8.556 11.04 9.292C10.9867 10.028 10.96 10.748 10.96 11.452C10.96 12.2093 11.0027 12.924 11.088 13.596C11.184 14.268 11.3067 14.8973 11.456 15.484C11.6053 16.0707 11.7653 16.6253 11.936 17.148L10.48 17.58C10.32 17.1 10.1653 16.54 10.016 15.9C9.87733 15.2493 9.76533 14.5613 9.68 13.836C9.59467 13.1107 9.552 12.3853 9.552 11.66C9.552 11.1267 9.568 10.5773 9.6 10.012C9.632 9.44667 9.66933 8.89733 9.712 8.364C9.76533 7.82 9.81867 7.308 9.872 6.828C9.936 6.348 9.984 5.92133 10.016 5.548C10.0373 5.40933 10.048 5.26 10.048 5.1C10.0587 4.94 10.064 4.80667 10.064 4.7L11.712 4.748ZM9.024 6.62C9.99467 6.62 10.9333 6.59867 11.84 6.556C12.7467 6.50267 13.616 6.42267 14.448 6.316C15.2907 6.20933 16.096 6.06533 16.864 5.884L16.88 7.372C16.3147 7.468 15.7013 7.55867 15.04 7.644C14.3787 7.71867 13.696 7.78267 12.992 7.836C12.288 7.88933 11.5893 7.932 10.896 7.964C10.2133 7.996 9.57333 8.012 8.976 8.012C8.73067 8.012 8.44267 8.00667 8.112 7.996C7.78133 7.97467 7.45067 7.95867 7.12 7.948C6.8 7.92667 6.52267 7.91067 6.288 7.9L6.24 6.412C6.432 6.444 6.69333 6.476 7.024 6.508C7.36533 6.54 7.71733 6.56667 8.08 6.588C8.44267 6.60933 8.75733 6.62 9.024 6.62ZM15.792 8.7C15.76 8.78533 15.7173 8.89733 15.664 9.036C15.6213 9.17467 15.5733 9.31333 15.52 9.452C15.4773 9.59067 15.4347 9.708 15.392 9.804C15.0827 10.7853 14.704 11.6813 14.256 12.492C13.8187 13.292 13.3387 14.0013 12.816 14.62C12.304 15.228 11.776 15.7347 11.232 16.14C10.72 16.5347 10.144 16.8707 9.504 17.148C8.87467 17.4253 8.25067 17.564 7.632 17.564C7.26933 17.564 6.93333 17.4893 6.624 17.34C6.31467 17.1907 6.06933 16.956 5.888 16.636C5.70667 16.316 5.616 15.9107 5.616 15.42C5.616 14.8653 5.73333 14.316 5.968 13.772C6.20267 13.228 6.52267 12.7107 6.928 12.22C7.344 11.7293 7.824 11.292 8.368 10.908C8.912 10.524 9.488 10.2147 10.096 9.98C10.6293 9.788 11.2 9.63333 11.808 9.516C12.4267 9.39867 13.0133 9.34 13.568 9.34C14.5813 9.34 15.4613 9.52133 16.208 9.884C16.9653 10.236 17.552 10.7213 17.968 11.34C18.3947 11.9587 18.608 12.6573 18.608 13.436C18.608 14.012 18.512 14.5667 18.32 15.1C18.1387 15.6227 17.84 16.108 17.424 16.556C17.008 16.9933 16.464 17.372 15.792 17.692C15.1307 18.012 14.3253 18.2467 13.376 18.396L12.512 17.068C13.504 16.9613 14.336 16.732 15.008 16.38C15.68 16.028 16.1867 15.5907 16.528 15.068C16.88 14.5453 17.056 13.98 17.056 13.372C17.056 12.8707 16.9173 12.4173 16.64 12.012C16.3733 11.596 15.9733 11.26 15.44 11.004C14.9173 10.748 14.272 10.62 13.504 10.62C12.8107 10.62 12.176 10.7053 11.6 10.876C11.0347 11.036 10.5547 11.2067 10.16 11.388C9.584 11.644 9.06667 11.9853 8.608 12.412C8.14933 12.828 7.78667 13.276 7.52 13.756C7.25333 14.236 7.12 14.6947 7.12 15.132C7.12 15.4307 7.18933 15.6547 7.328 15.804C7.47733 15.9533 7.69067 16.028 7.968 16.028C8.352 16.028 8.79467 15.9107 9.296 15.676C9.79733 15.4413 10.2987 15.0947 10.8 14.636C11.4613 14.0493 12.0747 13.34 12.64 12.508C13.216 11.676 13.6747 10.652 14.016 9.436C14.048 9.34 14.0747 9.228 14.096 9.1C14.128 8.96133 14.1547 8.82267 14.176 8.684C14.1973 8.53467 14.2133 8.412 14.224 8.316L15.792 8.7Z" fill="currentColor"/>
</svg>
