<svg width="24" height="24" viewBox="0 0 24 24" fill="none" xmlns="http://www.w3.org/2000/svg">
<path opacity="0.4" d="M16.19 2H7.81C4.17 2 2 4.17 2 7.81V16.18C2 19.83 4.17 22 7.81 22H16.18C19.82 22 21.99 19.83 21.99 16.19V7.81C22 4.17 19.83 2 16.19 2Z" fill="currentColor"/>
<path opacity="0.4" d="M9.77999 13.3333H6.66666C5.93333 13.3333 5.33333 13.9333 5.33333 14.6667V18.6667H9.77999V13.3333Z" fill="currentColor"/>
<path d="M12.8867 10.6667H11.1067C10.3733 10.6667 9.77334 11.2667 9.77334 12V18.6667H14.22V12C14.22 11.2667 13.6267 10.6667 12.8867 10.6667Z" fill="currentColor"/>
<path opacity="0.4" d="M17.3333 15.3333H14.22V18.6667H18.6667V16.6667C18.6667 15.9333 18.0667 15.3333 17.3333 15.3333Z" fill="currentColor"/>
<path d="M14.0067 7.23334C14.2133 7.02667 14.2933 6.78001 14.2267 6.56667C14.16 6.35334 13.9533 6.20001 13.66 6.15334L13.02 6.04667C12.9933 6.04001 12.9333 6 12.92 5.97333L12.5667 5.26666C12.3 4.72666 11.6933 4.72666 11.4267 5.26666L11.0733 5.97333C11.06 6 11 6.04001 10.9733 6.04667L10.3333 6.15334C10.04 6.20001 9.84001 6.35334 9.76667 6.56667C9.70001 6.78001 9.78001 7.02667 9.98667 7.23334L10.48 7.73334C10.5 7.75334 10.5267 7.83334 10.52 7.86001L10.38 8.47333C10.2733 8.92666 10.4467 9.13333 10.56 9.21999C10.6733 9.29999 10.92 9.40667 11.3267 9.16667L11.9267 8.81334C11.9533 8.79334 12.04 8.79334 12.0667 8.81334L12.6667 9.16667C12.8533 9.28 13.0067 9.31334 13.1267 9.31334C13.2667 9.31334 13.3667 9.25999 13.4267 9.21999C13.54 9.13999 13.7133 8.93333 13.6067 8.47333L13.4667 7.86001C13.46 7.82667 13.48 7.75334 13.5067 7.73334L14.0067 7.23334Z" fill="currentColor"/>
</svg>
