<svg width="24" height="24" viewBox="0 0 24 24" fill="none" xmlns="http://www.w3.org/2000/svg">
<path opacity="0.4" d="M22 7.81V16.19C22 19 20.71 20.93 18.44 21.66C17.78 21.89 17.02 22 16.19 22H7.81C6.98 22 6.22 21.89 5.56 21.66C3.29 20.93 2 19 2 16.19V7.81C2 4.17 4.17 2 7.81 2H16.19C19.83 2 22 4.17 22 7.81Z" fill="currentColor"/>
<path d="M12.0004 17.47C14.9691 17.4701 17.3341 19.1795 17.8647 21.3088C17.3649 21.435 16.8035 21.5002 16.1899 21.5002H7.81C7.196 21.5002 6.63427 21.4352 6.13422 21.3088C6.66468 19.1793 9.03147 17.47 12.0004 17.47Z" fill="currentColor" stroke="currentColor"/>
<path d="M15.58 11.58C15.58 13.56 13.98 15.17 12 15.17C10.02 15.17 8.41998 13.56 8.41998 11.58C8.41998 9.60002 10.02 8 12 8C13.98 8 15.58 9.60002 15.58 11.58Z" fill="currentColor"/>
</svg>
